# xmcd
#
# Track frame offsets:
#	150
#	23580
#	39457
#	52170
#	67027
#	85387
#	104165
#	119365
#	134517
#	152715
#
# Disc length: 2208 seconds
#
# Revision: 3
# Processed by: cddbd v1.5.1PL0 Copyright (c) Steve Scherf et al.
# Submitted via: MusicManager 7.0.6.0 
#
DISCID=8f089e0a
DTITLE=Various Artist - New Country May 1996
DYEAR=1996
DGENRE=Country
TTITLE0=Chris LeDoux - Stampede
TTITLE1=Wooden Leg - Sweet Lies
TTITLE2=The Kennedys - Velvet Glove
TTITLE3=Charlie Chesterman - So Long Now
TTITLE4=Jolene with Kim Richey - I Read What You Wrote Today
TTITLE5=Lynn Miles - You Don't Love Me Anymore
TTITLE6=Rainravens - What Are You Doing Tonight
TTITLE7=The Honeydogs - Busy man
TTITLE8=Cigar Store Indians - Mother of the Bride
TTITLE9=Rich McCready - Thinkin' Strait
EXTD=
EXTT0=
EXTT1=
EXTT2=
EXTT3=
EXTT4=
EXTT5=
EXTT6=
EXTT7=
EXTT8=
EXTT9=
PLAYORDER=
